<svg xmlns="http://www.w3.org/2000/svg" width="390" height="844" viewBox="0 0 390 844"><rect x="0" y="0" width="390" height="844" rx="28" fill="#faf6ed" stroke="none"/><text x="26" y="29" font-family="Plus Jakarta Sans, Arial, sans-serif" font-size="11" font-weight="600" fill="#402c22">9:41</text><rect x="150" y="9" width="90" height="22" rx="13" fill="#402c22" stroke="none"/><text x="26" y="77" font-family="Plus Jakarta Sans, Arial, sans-serif" font-size="24" font-weight="400" fill="#402c22">‹</text><text x="302" y="77" font-family="Fraunces, Arial, sans-serif" font-size="18" font-weight="400" fill="#402c22">acorn</text><text x="24" y="126" font-family="Plus Jakarta Sans, Arial, sans-serif" font-size="10" font-weight="600" fill="#45634b">A LITTLE CARE, EVERY DAY</text><text x="24" y="171" font-family="Fraunces, Arial, sans-serif" font-size="31" font-weight="400" fill="#402c22">A little less</text><text x="24" y="204" font-family="Plus Jakarta Sans, Arial, sans-serif" font-size="15" font-weight="400" fill="#74685b">to remember.</text><text x="24" y="262" font-family="Plus Jakarta Sans, Arial, sans-serif" font-size="12" font-weight="600" fill="#45634b">SCHEDULE SAVED</text><rect x="24" y="293" width="342" height="111" rx="14" fill="#e7eddf" stroke="none"/><text x="42" y="325" font-family="Plus Jakarta Sans, Arial, sans-serif" font-size="12" font-weight="400" fill="#45634b">08:00 · EVERY DAY</text><text x="42" y="357" font-family="Plus Jakarta Sans, Arial, sans-serif" font-size="14" font-weight="600" fill="#402c22">Example medicine 10 mg tablets</text><text x="42" y="384" font-family="Plus Jakarta Sans, Arial, sans-serif" font-size="13" font-weight="400" fill="#74685b">One tablet · by mouth</text><rect x="0" y="433" width="390" height="260" rx="0" fill="#e8ede0" stroke="none"/><circle cx="312" cy="476" r="23" fill="#ecd8ae"/><path d="M0 603q100-95 210-30t180-22v142H0" fill="#a4b791"/><path d="M0 663q90-60 195-15t195-17v62H0" fill="#bec297"/><g transform="translate(35 614) scale(0.75)"><path d="M-4 0V-90h8V0" fill="#775e44"/><path d="m0-116-33 53h17l-27 41h26L-35 0h70L17-22h26L16-63h17z" fill="#8ea17a"/></g><g transform="translate(320 608) scale(0.85)"><path d="M-4 0V-90h8V0" fill="#775e44"/><path d="m0-116-33 53h17l-27 41h26L-35 0h70L17-22h26L16-63h17z" fill="#7b9973"/></g><g transform="translate(183 663) scale(1.5)"><path d="M-4 0V-90h8V0" fill="#775e44"/><path d="m0-116-33 53h17l-27 41h26L-35 0h70L17-22h26L16-63h17z" fill="#516e4c"/></g><g transform="translate(71 658) scale(0.5)"><path d="M-4 0V-90h8V0" fill="#775e44"/><path d="m0-116-33 53h17l-27 41h26L-35 0h70L17-22h26L16-63h17z" fill="#6d865c"/></g><g transform="translate(352 668) scale(0.5)"><path d="M-4 0V-90h8V0" fill="#775e44"/><path d="m0-116-33 53h17l-27 41h26L-35 0h70L17-22h26L16-63h17z" fill="#5e7d54"/></g><g transform="translate(259 655)"><path d="M0 0c25-2 29-38 8-38-21 0-20 18-8 22 6 2 8-7 2-8 15 0 9 17-3 14" fill="#ad7544"/><ellipse cx="-5" cy="-4" rx="13" ry="10" fill="#b9804e"/><circle cx="-15" cy="-14" r="9" fill="#bb8957"/><path d="m-20-20 2-10 5 11m2 0 5-9 2 12" fill="#a16b42"/><ellipse cx="-19" cy="-10" rx="6" ry="4" fill="#debe90"/><circle cx="-18" cy="-16" r="1.5" fill="#402c22"/></g><rect x="24" y="765" width="342" height="52" rx="13" fill="#402c22" stroke="none"/><text x="42" y="797" font-family="Plus Jakarta Sans, Arial, sans-serif" font-size="14" font-weight="600" fill="#faf6ed">Back to my forest</text></svg>